HIERARCHY
ROOT Hips
{
	OFFSET 0.000000 83.214638 0.000000
	CHANNELS 6 Xposition Yposition Zposition Xrotation Yrotation Zrotation
	JOINT Pelvis
	{
		OFFSET 0.000000 0.000000 0.000000
		CHANNELS 3 Xrotation Yrotation Zrotation
		JOINT LeftUpLeg
		{
			OFFSET 8.479700 -4.795502 -0.379100
			CHANNELS 3 Xrotation Yrotation Zrotation
			JOINT LeftLeg
			{
				OFFSET 0.024144 -32.555107 0.112900
				CHANNELS 3 Xrotation Yrotation Zrotation
				JOINT LeftFoot
				{
					OFFSET -0.024144 -32.638630 -3.012600
					CHANNELS 3 Xrotation Yrotation Zrotation
					JOINT LeftToeBase
					{
						OFFSET 0.970200 -13.225400 11.864200
						CHANNELS 3 Xrotation Yrotation Zrotation
						End Site
						{
							OFFSET 0.000000 12.319262 0.000000
						}
					}
					JOINT LFootTongue
					{
						OFFSET 1.142400 -1.059800 6.665200
						CHANNELS 3 Xrotation Yrotation Zrotation
						End Site
						{
							OFFSET 0.000000 12.319262 0.000000
						}
					}
				}
				JOINT LeftPantLeg
				{
					OFFSET 0.918482 -16.533964 -2.284700
					CHANNELS 3 Xrotation Yrotation Zrotation
					End Site
					{
						OFFSET 0.350399 24.744368 0.000000
					}
				}
			}
		}
		JOINT RightUpLeg
		{
			OFFSET -8.479700 -4.795502 -0.379100
			CHANNELS 3 Xrotation Yrotation Zrotation
			JOINT RightLeg
			{
				OFFSET -0.023144 -32.555092 0.112900
				CHANNELS 3 Xrotation Yrotation Zrotation
				JOINT RightFoot
				{
					OFFSET 0.023144 -32.638641 -3.012700
					CHANNELS 3 Xrotation Yrotation Zrotation
					JOINT RightToeBase
					{
						OFFSET -0.970200 -13.225400 11.864200
						CHANNELS 3 Xrotation Yrotation Zrotation
						End Site
						{
							OFFSET 0.000000 12.319244 0.000000
						}
					}
					JOINT RFootTongue
					{
						OFFSET -1.142200 -1.059800 6.665200
						CHANNELS 3 Xrotation Yrotation Zrotation
						End Site
						{
							OFFSET 0.000000 12.319243 0.000000
						}
					}
				}
				JOINT RightPantLeg
				{
					OFFSET -0.919482 -16.533978 -2.284800
					CHANNELS 3 Xrotation Yrotation Zrotation
					End Site
					{
						OFFSET -0.350400 24.744419 0.000000
					}
				}
			}
		}
	}
	JOINT Spine
	{
		OFFSET 0.000000 7.722000 1.166200
		CHANNELS 3 Xrotation Yrotation Zrotation
		JOINT Spine1
		{
			OFFSET 0.000000 12.024101 0.248800
			CHANNELS 3 Xrotation Yrotation Zrotation
			JOINT Spine2
			{
				OFFSET 0.000000 11.502998 -0.491200
				CHANNELS 3 Xrotation Yrotation Zrotation
				JOINT Neck
				{
					OFFSET 0.000000 18.430702 -3.123100
					CHANNELS 3 Xrotation Yrotation Zrotation
					JOINT Head
					{
						OFFSET 0.000000 9.051102 1.034000
						CHANNELS 3 Xrotation Yrotation Zrotation
						JOINT HairB
						{
							OFFSET 0.208400 24.786102 24.822300
							CHANNELS 3 Xrotation Yrotation Zrotation
							End Site
							{
								OFFSET 0.000000 32.263779 0.000000
							}
						}
						JOINT HairA
						{
							OFFSET -7.081100 24.428299 23.196600
							CHANNELS 3 Xrotation Yrotation Zrotation
							End Site
							{
								OFFSET 0.000000 32.263779 0.000000
							}
						}
						JOINT Hat
						{
							OFFSET 16.728800 15.048294 -15.439601
							CHANNELS 3 Xrotation Yrotation Zrotation
							End Site
							{
								OFFSET 0.000000 32.263779 0.000000
							}
						}
					}
				}
				JOINT LeftShoulder
				{
					OFFSET 6.197800 13.665199 -4.064700
					CHANNELS 3 Xrotation Yrotation Zrotation
					JOINT LeftArm
					{
						OFFSET 7.778100 -0.187103 -1.709300
						CHANNELS 3 Xrotation Yrotation Zrotation
						JOINT LeftForeArm
						{
							OFFSET 22.049376 0.000000 0.000000
							CHANNELS 3 Xrotation Yrotation Zrotation
							JOINT LeftHand
							{
								OFFSET 23.009392 0.000000 0.000000
								CHANNELS 3 Xrotation Yrotation Zrotation
								JOINT LeftHandThumb1
								{
									OFFSET 3.507191 -2.063065 3.133727
									CHANNELS 3 Xrotation Yrotation Zrotation
									JOINT LeftHandThumb2
									{
										OFFSET 3.101337 -1.790558 1.790558
										CHANNELS 3 Xrotation Yrotation Zrotation
										JOINT LeftHandThumb3
										{
											OFFSET 3.058640 -1.765907 1.765906
											CHANNELS 3 Xrotation Yrotation Zrotation
											End Site
											{
												OFFSET -0.415260 3.926476 -0.049563
											}
										}
									}
								}
								JOINT LeftHandIndex1
								{
									OFFSET 11.334419 -0.901459 3.706815
									CHANNELS 3 Xrotation Yrotation Zrotation
									JOINT LeftHandIndex2
									{
										OFFSET 3.283112 0.000000 0.000000
										CHANNELS 3 Xrotation Yrotation Zrotation
										JOINT LeftHandIndex3
										{
											OFFSET 3.323853 0.000000 0.000000
											CHANNELS 3 Xrotation Yrotation Zrotation
											End Site
											{
												OFFSET -1.135597 3.097809 0.402452
											}
										}
									}
								}
								JOINT LeftHandMiddle1
								{
									OFFSET 11.335861 0.000000 0.000000
									CHANNELS 3 Xrotation Yrotation Zrotation
									JOINT LeftHandMiddle2
									{
										OFFSET 3.410492 0.000000 0.000000
										CHANNELS 3 Xrotation Yrotation Zrotation
										JOINT LeftHandMiddle3
										{
											OFFSET 3.312172 0.000000 0.000000
											CHANNELS 3 Xrotation Yrotation Zrotation
											End Site
											{
												OFFSET -1.150200 3.080154 0.400270
											}
										}
									}
								}
								JOINT LeftHandRing1
								{
									OFFSET 11.514786 -0.013176 -3.003090
									CHANNELS 3 Xrotation Yrotation Zrotation
									JOINT LeftHandRing2
									{
										OFFSET 3.053307 0.000000 0.000000
										CHANNELS 3 Xrotation Yrotation Zrotation
										JOINT LeftHandRing3
										{
											OFFSET 3.295807 0.000000 0.000000
											CHANNELS 3 Xrotation Yrotation Zrotation
											End Site
											{
												OFFSET -1.281006 3.013344 0.375733
											}
										}
									}
								}
								JOINT LeftHandPinky1
								{
									OFFSET 10.518692 -0.960396 -5.730441
									CHANNELS 3 Xrotation Yrotation Zrotation
									JOINT LeftHandPinky2
									{
										OFFSET 2.861649 0.000000 0.000000
										CHANNELS 3 Xrotation Yrotation Zrotation
										JOINT LeftHandPinky3
										{
											OFFSET 2.863380 0.000000 0.000000
											CHANNELS 3 Xrotation Yrotation Zrotation
											End Site
											{
												OFFSET -0.843597 2.711159 0.369971
											}
										}
									}
								}
							}
							JOINT LSleeve
							{
								OFFSET 6.676277 -0.344902 -1.011730
								CHANNELS 3 Xrotation Yrotation Zrotation
								End Site
								{
									OFFSET 0.000000 14.885353 0.000000
								}
							}
						}
					}
				}
				JOINT RightShoulder
				{
					OFFSET -6.197800 13.665199 -4.064700
					CHANNELS 3 Xrotation Yrotation Zrotation
					JOINT RightArm
					{
						OFFSET -7.778100 -0.187103 -1.709300
						CHANNELS 3 Xrotation Yrotation Zrotation
						JOINT RightForeArm
						{
							OFFSET -22.049376 0.000000 0.000000
							CHANNELS 3 Xrotation Yrotation Zrotation
							JOINT RightHand
							{
								OFFSET -23.009392 0.000000 0.000000
								CHANNELS 3 Xrotation Yrotation Zrotation
								JOINT RightHandThumb1
								{
									OFFSET -3.507191 -2.063065 3.133727
									CHANNELS 3 Xrotation Yrotation Zrotation
									JOINT RightHandThumb2
									{
										OFFSET -3.101337 -1.790558 1.790558
										CHANNELS 3 Xrotation Yrotation Zrotation
										JOINT RightHandThumb3
										{
											OFFSET -3.058640 -1.765907 1.765906
											CHANNELS 3 Xrotation Yrotation Zrotation
											End Site
											{
												OFFSET 0.415260 3.926476 -0.049563
											}
										}
									}
								}
								JOINT RightHandIndex1
								{
									OFFSET -11.334419 -0.901459 3.706815
									CHANNELS 3 Xrotation Yrotation Zrotation
									JOINT RightHandIndex2
									{
										OFFSET -3.283112 0.000000 0.000000
										CHANNELS 3 Xrotation Yrotation Zrotation
										JOINT RightHandIndex3
										{
											OFFSET -3.323853 0.000000 0.000000
											CHANNELS 3 Xrotation Yrotation Zrotation
											End Site
											{
												OFFSET 1.135597 3.097809 0.402452
											}
										}
									}
								}
								JOINT RightHandMiddle1
								{
									OFFSET -11.335861 0.000000 0.000000
									CHANNELS 3 Xrotation Yrotation Zrotation
									JOINT RightHandMiddle2
									{
										OFFSET -3.410492 0.000000 0.000000
										CHANNELS 3 Xrotation Yrotation Zrotation
										JOINT RightHandMiddle3
										{
											OFFSET -3.312172 0.000000 0.000000
											CHANNELS 3 Xrotation Yrotation Zrotation
											End Site
											{
												OFFSET 1.150200 3.080154 0.400270
											}
										}
									}
								}
								JOINT RightHandRing1
								{
									OFFSET -11.514786 -0.013176 -3.003090
									CHANNELS 3 Xrotation Yrotation Zrotation
									JOINT RightHandRing2
									{
										OFFSET -3.053307 0.000000 0.000000
										CHANNELS 3 Xrotation Yrotation Zrotation
										JOINT RightHandRing3
										{
											OFFSET -3.295807 0.000000 0.000000
											CHANNELS 3 Xrotation Yrotation Zrotation
											End Site
											{
												OFFSET 1.281006 3.013344 0.375733
											}
										}
									}
								}
								JOINT RightHandPinky1
								{
									OFFSET -10.518692 -0.960396 -5.730441
									CHANNELS 3 Xrotation Yrotation Zrotation
									JOINT RightHandPinky2
									{
										OFFSET -2.861649 0.000000 0.000000
										CHANNELS 3 Xrotation Yrotation Zrotation
										JOINT RightHandPinky3
										{
											OFFSET -2.863380 0.000000 0.000000
											CHANNELS 3 Xrotation Yrotation Zrotation
											End Site
											{
												OFFSET 0.843597 2.711159 0.369971
											}
										}
									}
								}
							}
							JOINT RSleeve
							{
								OFFSET -6.676277 -0.344902 -1.011730
								CHANNELS 3 Xrotation Yrotation Zrotation
								End Site
								{
									OFFSET 0.000000 14.885353 0.000000
								}
							}
						}
					}
				}
				JOINT Backpack
				{
					OFFSET 0.000000 -2.471497 36.677502
					CHANNELS 3 Xrotation Yrotation Zrotation
					End Site
					{
						OFFSET 0.000000 20.427315 0.000000
					}
				}
				JOINT Hood
				{
					OFFSET 0.000000 18.754097 -10.431000
					CHANNELS 3 Xrotation Yrotation Zrotation
					JOINT Hood1
					{
						OFFSET 0.000000 -5.011002 -7.685901
						CHANNELS 3 Xrotation Yrotation Zrotation
						End Site
						{
							OFFSET 0.000000 9.175140 0.000000
						}
					}
				}
				JOINT LHoodieString
				{
					OFFSET 5.250500 16.397697 3.089900
					CHANNELS 3 Xrotation Yrotation Zrotation
					JOINT LHoodieString1
					{
						OFFSET 0.257700 -6.364304 3.694600
						CHANNELS 3 Xrotation Yrotation Zrotation
						JOINT LHoodieString2
						{
							OFFSET 0.000000 -9.643799 2.679100
							CHANNELS 3 Xrotation Yrotation Zrotation
							End Site
							{
								OFFSET 0.000000 10.009018 0.000000
							}
						}
					}
				}
				JOINT RHoodieString
				{
					OFFSET -5.250500 16.397697 3.089900
					CHANNELS 3 Xrotation Yrotation Zrotation
					JOINT RHoodieString1
					{
						OFFSET -0.257700 -6.364304 3.694600
						CHANNELS 3 Xrotation Yrotation Zrotation
						JOINT RHoodieString2
						{
							OFFSET 0.000000 -9.643799 2.679100
							CHANNELS 3 Xrotation Yrotation Zrotation
							End Site
							{
								OFFSET 0.000000 10.009018 0.000000
							}
						}
					}
				}
			}
			JOINT LBackpack_Strap
			{
				OFFSET 15.223200 -7.719803 -6.610900
				CHANNELS 3 Xrotation Yrotation Zrotation
				End Site
				{
					OFFSET 0.000000 16.040596 0.000000
				}
			}
			JOINT RBackpack_Strap
			{
				OFFSET -15.223000 -7.719803 -6.610900
				CHANNELS 3 Xrotation Yrotation Zrotation
				End Site
				{
					OFFSET 0.000000 16.040596 0.000000
				}
			}
		}
	}
	JOINT BoyFacialAnim_Joint
	{
		OFFSET 1.000000 -82.208099 -1.550900
		CHANNELS 3 Xrotation Yrotation Zrotation
		End Site
		{
			OFFSET 0.000000 30.012791 0.000000
		}
	}
}
MOTION
Frames: 4
Frame Time: 0.016667
-2.064088 36.868187 71.718468 20.481982 -24.243644 -5.633751 -0.000001 0.000000 -0.000001 -4.727729 6.162925 -0.542078 92.409113 -14.011915 -1.571788 27.040560 -5.239883 -27.866214 0.000002 -0.000000 0.000000 0.000002 -0.000000 0.000000 -0.000000 0.000001 -0.000000 5.893212 10.785570 -10.165581 60.088528 11.288266 -14.175003 46.328456 7.473407 19.684940 -0.000002 0.000000 0.000001 -0.000002 0.000000 0.000001 -0.000000 -0.000001 -0.000000 5.370665 0.379329 0.653827 -5.387902 1.463338 2.228126 -5.408686 1.438967 2.129568 -64.248694 1.118116 14.686597 13.384913 14.022325 -18.292375 0.000000 0.000001 -0.000002 0.000000 0.000001 -0.000002 0.000000 0.000001 -0.000002 -18.927007 2.423267 -16.209304 6.399255 13.475593 -49.024038 73.253321 -19.968943 30.111377 -15.141017 22.562577 -4.718106 -0.610173 -6.200730 8.854778 3.159802 21.613953 -1.887063 0.000002 -0.000002 0.000002 13.340420 -1.006155 10.837307 -0.167757 0.303307 -30.950551 0.000001 0.000000 -0.000000 8.497921 -0.331004 -0.760251 0.230665 0.660664 -29.746847 0.000001 -0.000001 -0.000000 6.113361 3.149159 -16.056030 0.047048 0.321379 -29.970416 -0.000001 -0.000000 0.000001 -5.635365 7.708983 -13.723652 0.223790 0.276096 -46.433293 0.000003 0.000000 0.000002 -0.000001 -0.000000 0.000002 -18.645064 3.158385 16.723942 7.365364 -4.012499 58.411675 156.201918 144.055779 -156.460728 58.447138 -8.915779 -6.382660 0.630123 8.367620 -11.244494 -0.724210 -13.326699 3.592247 -0.000001 0.000002 0.000000 19.441946 11.173368 -14.416327 -0.119644 -0.321786 16.959133 0.000000 0.000002 0.000002 4.337936 2.446813 -5.888748 0.343353 -0.457178 25.813804 0.000002 0.000000 0.000003 -6.996690 -10.686240 4.645075 0.112037 -0.082032 25.079447 0.000002 0.000001 0.000002 -19.430121 -20.234244 4.912571 0.220282 -0.081681 35.768116 -0.000001 -0.000001 0.000002 0.000001 -0.000004 0.000000 0.000001 -0.000001 -0.000001 0.000001 -0.000001 -0.000001 0.000001 -0.000001 -0.000001 0.000001 -0.000001 -0.000001 0.000001 -0.000001 -0.000000 -0.000001 0.000001 0.000000 0.000001 -0.000001 -0.000001 0.000001 -0.000001 -0.000000 -0.000001 0.000001 0.000000 0.000000 0.000000 -0.000000 0.000000 0.000000 -0.000000 -0.000001 0.000000 -0.000001 
-2.046882 36.653465 72.591629 21.527228 -24.383780 -5.646369 -0.000000 0.000000 -0.000000 -4.273054 5.433558 -1.100796 90.890461 -13.665975 -1.428939 27.310163 -5.321357 -27.935633 0.000001 0.000000 -0.000000 0.000001 0.000000 -0.000000 0.000001 -0.000003 0.000001 5.804801 10.340452 -9.984324 59.743323 11.829393 -13.900370 45.571350 7.408497 19.918039 -0.000000 0.000001 -0.000001 -0.000000 0.000001 -0.000001 0.000000 0.000000 0.000001 5.325996 0.368492 0.763146 -5.487561 1.423595 2.351741 -5.507080 1.408916 2.254501 -65.359555 0.986974 14.866096 13.903058 14.117405 -18.447585 -0.000001 -0.000000 0.000001 -0.000001 -0.000000 0.000001 -0.000001 -0.000000 0.000001 -19.123842 2.643943 -15.817977 8.811191 13.503262 -48.194740 72.720109 -20.634410 30.098690 -17.435812 22.649356 -4.324277 -0.741596 -6.712979 8.749670 2.927789 21.139787 -1.929448 0.000002 0.000001 0.000000 13.336287 -1.001480 12.126824 -0.169172 0.302494 -29.660967 -0.000000 0.000001 -0.000002 8.519030 -0.343193 0.529221 0.223472 0.656139 -28.457176 0.000004 -0.000001 0.000002 6.127088 3.134677 -14.767294 0.046584 0.312743 -28.680893 -0.000001 0.000001 0.000001 -5.629728 7.701564 -12.434846 0.218858 0.271846 -45.143719 -0.000002 0.000003 0.000000 -0.000001 0.000000 -0.000001 -18.793156 2.934421 16.971145 7.755218 -2.903526 58.461303 155.010119 141.216278 -155.160615 55.970228 -10.115526 -6.424039 0.621919 8.403527 -11.236685 -0.945188 -12.892637 3.661366 -0.000001 0.000004 0.000005 19.440153 11.172228 -15.590173 -0.120695 -0.320685 15.784924 0.000001 0.000003 -0.000001 4.357211 2.457249 -7.063565 0.337133 -0.452619 24.639619 0.000001 0.000001 0.000000 -6.986733 -10.676714 3.472822 0.112278 -0.074159 23.905276 -0.000000 0.000001 0.000001 -19.426332 -20.230013 3.739696 0.216541 -0.077078 34.593908 -0.000001 -0.000001 -0.000002 -0.000000 0.000001 0.000002 0.000001 -0.000001 -0.000000 0.000001 -0.000001 -0.000000 0.000001 -0.000001 -0.000000 0.000001 -0.000001 -0.000000 0.000001 -0.000001 0.000001 -0.000000 -0.000001 -0.000000 0.000001 -0.000001 -0.000000 0.000001 -0.000001 0.000001 -0.000000 -0.000001 -0.000000 0.000000 -0.000003 0.000000 0.000000 -0.000003 0.000000 -0.000000 0.000000 -0.000000 
-2.058865 36.408173 73.379951 22.619954 -24.490304 -5.584781 0.000001 -0.000000 0.000001 -3.968444 4.644798 -1.684856 89.558506 -12.848493 -1.198961 27.469148 -5.362435 -27.935561 -0.000000 -0.000001 -0.000000 -0.000000 -0.000001 -0.000000 0.000001 -0.000001 0.000000 5.860596 10.000302 -9.891895 59.059478 12.021247 -13.621063 45.964045 7.585191 20.224661 0.000001 -0.000001 -0.000000 0.000001 -0.000001 -0.000000 -0.000000 -0.000000 0.000001 5.289405 0.399104 0.813333 -5.579769 1.386652 2.467673 -5.597973 1.382301 2.371570 -66.531739 0.851082 14.977234 14.412287 14.182153 -18.577606 0.000002 -0.000000 -0.000000 0.000002 -0.000000 -0.000000 0.000002 -0.000000 -0.000000 -19.324738 2.867696 -15.372842 11.222557 12.997947 -47.136081 70.495851 -22.628997 28.974475 -19.002112 22.383107 -3.511829 -0.855965 -7.156662 8.657859 2.728071 20.728664 -1.967467 -0.000004 0.000003 0.000001 13.332687 -0.997562 13.243811 -0.170389 0.301696 -28.543892 0.000001 0.000001 -0.000005 8.537467 -0.353293 1.646222 0.217341 0.652130 -27.340049 0.000001 -0.000001 -0.000000 6.139196 3.122414 -13.651064 0.046407 0.305281 -27.563778 0.000000 0.000001 -0.000000 -5.624717 7.695239 -11.318492 0.214616 0.268163 -44.026611 -0.000004 0.000000 -0.000000 -0.000002 0.000000 -0.000000 -18.954769 2.720317 17.238103 8.007429 -1.543119 58.369007 156.553236 137.723566 -156.028896 51.277546 -11.257166 -6.118201 0.614077 8.437616 -11.229189 -1.155316 -12.479942 3.728714 0.000001 0.000003 -0.000001 19.438408 11.171148 -16.706469 -0.121718 -0.319686 14.668265 0.000001 0.000004 0.000002 4.375719 2.466758 -8.180822 0.331317 -0.448187 23.522953 0.000001 -0.000001 0.000005 -6.977105 -10.667862 2.358091 0.112693 -0.066684 22.788650 -0.000002 -0.000001 0.000000 -19.422645 -20.226045 2.624338 0.213067 -0.072656 33.477305 -0.000000 0.000000 0.000000 -0.000000 -0.000003 -0.000002 0.000001 -0.000001 -0.000000 0.000001 -0.000001 -0.000000 0.000001 -0.000001 -0.000000 0.000001 -0.000001 -0.000000 0.000001 -0.000001 0.000000 -0.000000 -0.000003 0.000001 0.000001 -0.000001 -0.000000 0.000001 -0.000001 0.000000 -0.000000 -0.000003 0.000001 0.000000 -0.000001 0.000001 0.000000 -0.000001 0.000001 0.000001 -0.000000 0.000001 
-2.067553 36.114403 74.205902 23.762199 -24.527836 -5.495347 0.000002 0.000000 0.000000 -3.609043 3.716948 -2.398346 88.119966 -11.665441 -0.877968 27.607102 -5.422247 -28.066531 0.000003 0.000001 -0.000001 0.000003 0.000001 -0.000001 -0.000002 -0.000002 0.000000 5.998071 9.663196 -9.862816 58.287762 11.907825 -13.328838 46.797318 7.781775 20.333680 0.000001 -0.000000 0.000001 0.000001 -0.000000 0.000001 -0.000000 -0.000000 -0.000000 5.262521 0.444036 0.842310 -5.663054 1.353729 2.575408 -5.679921 1.360151 2.479900 -67.748469 0.721241 15.041646 14.908428 14.198113 -18.680202 0.000003 0.000001 0.000001 0.000003 0.000001 0.000001 0.000003 0.000001 0.000001 -19.520749 3.090940 -14.887417 13.533073 12.286159 -45.847337 67.504720 -25.443310 27.159211 -20.419578 21.822113 -2.446591 -0.950505 -7.516257 8.582039 2.566229 20.394947 -1.999371 -0.000001 -0.000002 -0.000001 13.329689 -0.994423 14.150509 -0.171366 0.301071 -27.637146 0.000000 0.000000 -0.000002 8.552598 -0.361242 2.552879 0.212487 0.648779 -26.433264 0.000001 -0.000001 -0.000000 6.149236 3.112635 -12.744925 0.046336 0.299215 -26.657040 -0.000002 -0.000001 0.000001 -5.620577 7.690176 -10.412286 0.211238 0.265088 -43.119841 -0.000004 0.000002 -0.000002 -0.000001 0.000000 0.000001 -19.127494 2.546782 17.483032 8.238800 -0.098710 58.067994 160.341751 133.889835 -158.935715 44.865460 -12.163806 -5.670169 0.606825 8.469561 -11.222014 -1.352349 -12.093385 3.793162 -0.000001 0.000000 -0.000006 19.436760 11.170208 -17.752867 -0.122627 -0.318719 13.621598 -0.000001 0.000000 0.000002 4.393246 2.475370 -9.228062 0.325901 -0.443942 22.476226 -0.000002 0.000001 0.000004 -6.967916 -10.659768 1.313160 0.113203 -0.059657 21.741932 -0.000001 -0.000001 0.000000 -19.419155 -20.222382 1.578872 0.209903 -0.068462 32.430650 -0.000000 -0.000001 0.000002 0.000001 0.000003 0.000001 0.000001 0.000001 -0.000001 0.000001 0.000001 -0.000001 0.000001 0.000001 -0.000001 0.000001 0.000001 -0.000001 0.000001 0.000001 -0.000001 -0.000001 0.000001 -0.000000 0.000001 0.000001 -0.000001 0.000001 0.000001 -0.000001 -0.000001 0.000001 -0.000000 0.000001 0.000002 0.000000 0.000001 0.000002 0.000000 0.000002 0.000000 0.000000 
